<svg width="44px" height="44px" viewBox="0 0 44 44" version="1.1" xmlns="http://www.w3.org/2000/svg" xmlns:xlink="http://www.w3.org/1999/xlink">
    <g id="Page-1" stroke="none" stroke-width="1" fill="none" fill-rule="evenodd">
        <g id="Artboard" transform="translate(-568, -846)">
            <rect id="Rectangle" fill="#3696F5" x="568" y="846" width="44" height="44" rx="10"></rect>
            <path d="M601,878.912442 L601,862.309748 C601,861.586198 600.727329,860.892303 600.241906,860.380674 L593.993388,853.794442 C593.507965,853.282812 592.849647,852.995392 592.163247,852.995392 L582.882353,852.995392 C580.738194,852.995392 579,854.827523 579,857.087558 L579,878.912442 C579,881.172546 580.738194,883.004608 582.882353,883.004608 L597.117647,883.004608 C599.261871,883.004608 601,881.172546 601,878.912442 Z" id="Path-Copy" fill="#FFFFFF" fill-rule="nonzero"></path>
            <path d="M591.85077,871.638571 L587.225924,876.221911 C586.623903,876.818509 585.64772,876.818509 585.045699,876.221911 C584.44357,875.625313 584.44357,874.657923 585.045545,874.061325 L587.038766,872.086058 L579,872.086058 C579,872.086058 579,869.030498 579,869.030498 L587.038766,869.030498 L585.045545,867.055231 C584.44357,866.458633 584.44357,865.491243 585.045699,864.894645 C585.64772,864.298047 586.623903,864.298047 587.225924,864.894645 L591.85077,869.477985 C592.452791,870.074583 592.452791,871.041973 591.85077,871.638571 Z" id="Shape-path-Copy" fill="#3696F5" fill-rule="nonzero"></path>
        </g>
    </g>
</svg>